<svg width="413" height="323" viewBox="0 0 413 323" fill="none" xmlns="http://www.w3.org/2000/svg">
<rect x="0.5" y="0.5" width="412" height="322" rx="15.5" stroke="#7B4AE2" stroke-opacity="0.5"/>
<path d="M83.9146 229.275L83.8967 199.455L89.6927 199.452L89.7106 229.272L83.9146 229.275ZM115.84 229.258L110.212 229.261L110.205 216.913C110.204 215.149 109.895 213.861 109.278 213.049C108.662 212.238 107.808 211.832 106.716 211.833C105.96 211.833 105.19 212.03 104.406 212.422C103.65 212.814 102.965 213.361 102.349 214.061C101.733 214.733 101.286 215.518 101.006 216.414L101.014 229.266L95.3862 229.269L95.373 207.261L100.455 207.258L100.457 211.332C101.017 210.38 101.73 209.581 102.598 208.937C103.466 208.264 104.459 207.76 105.579 207.423C106.727 207.059 107.931 206.876 109.191 206.875C110.563 206.875 111.683 207.126 112.551 207.629C113.447 208.105 114.12 208.763 114.568 209.602C115.045 210.414 115.367 211.338 115.536 212.374C115.733 213.41 115.831 214.46 115.832 215.524L115.84 229.258ZM129.344 229.376C127.888 229.377 126.544 229.098 125.311 228.538C124.107 227.951 123.057 227.14 122.16 226.104C121.291 225.069 120.619 223.879 120.142 222.535C119.665 221.191 119.426 219.764 119.425 218.252C119.424 216.656 119.675 215.171 120.179 213.799C120.682 212.427 121.381 211.222 122.276 210.186C123.2 209.121 124.277 208.309 125.509 207.748C126.769 207.159 128.154 206.865 129.666 206.864C131.374 206.863 132.873 207.254 134.161 208.037C135.45 208.793 136.514 209.814 137.355 211.102L137.353 207.238L142.267 207.235L142.279 228.193C142.281 230.377 141.75 232.239 140.687 233.78C139.652 235.348 138.21 236.539 136.363 237.352C134.515 238.193 132.415 238.614 130.063 238.616C127.684 238.617 125.667 238.212 124.015 237.401C122.362 236.618 120.948 235.499 119.771 234.043L122.835 231.06C123.676 232.095 124.726 232.907 125.986 233.494C127.275 234.081 128.633 234.374 130.061 234.374C131.265 234.373 132.357 234.148 133.337 233.7C134.344 233.279 135.142 232.607 135.729 231.683C136.345 230.786 136.652 229.624 136.651 228.196L136.65 225.424C135.922 226.684 134.887 227.665 133.543 228.366C132.228 229.038 130.828 229.375 129.344 229.376ZM131.231 224.881C131.847 224.881 132.435 224.782 132.995 224.586C133.555 224.39 134.073 224.123 134.549 223.787C135.024 223.451 135.444 223.059 135.808 222.61C136.172 222.134 136.451 221.658 136.647 221.182L136.644 215.932C136.307 215.064 135.831 214.308 135.214 213.665C134.626 213.021 133.954 212.531 133.198 212.196C132.469 211.832 131.699 211.651 130.887 211.651C130.019 211.652 129.235 211.834 128.536 212.199C127.836 212.563 127.234 213.081 126.731 213.754C126.227 214.398 125.835 215.126 125.556 215.938C125.304 216.722 125.179 217.548 125.179 218.416C125.18 219.312 125.334 220.152 125.643 220.936C125.951 221.72 126.372 222.406 126.904 222.993C127.464 223.581 128.109 224.043 128.837 224.378C129.593 224.714 130.391 224.881 131.231 224.881ZM157.559 229.654C155.795 229.655 154.199 229.362 152.771 228.775C151.342 228.16 150.124 227.334 149.115 226.299C148.107 225.236 147.322 224.032 146.761 222.688C146.228 221.317 145.961 219.875 145.96 218.363C145.959 216.263 146.42 214.345 147.343 212.608C148.294 210.871 149.637 209.485 151.372 208.448C153.136 207.383 155.208 206.85 157.588 206.848C159.996 206.847 162.054 207.378 163.762 208.441C165.471 209.476 166.774 210.861 167.671 212.597C168.596 214.304 169.059 216.152 169.06 218.14C169.061 218.476 169.047 218.826 169.019 219.19C168.991 219.526 168.963 219.806 168.935 220.03L151.925 220.039C152.038 221.159 152.361 222.139 152.893 222.979C153.454 223.819 154.154 224.462 154.994 224.91C155.863 225.329 156.787 225.539 157.767 225.538C158.887 225.538 159.937 225.271 160.916 224.738C161.924 224.178 162.61 223.45 162.973 222.553L167.804 223.895C167.272 225.015 166.503 226.009 165.496 226.878C164.516 227.746 163.355 228.433 162.011 228.938C160.667 229.415 159.183 229.653 157.559 229.654ZM151.797 216.47L163.305 216.463C163.193 215.343 162.87 214.377 162.338 213.566C161.833 212.726 161.161 212.082 160.32 211.635C159.48 211.159 158.542 210.922 157.506 210.922C156.498 210.923 155.574 211.161 154.734 211.638C153.923 212.086 153.251 212.731 152.72 213.571C152.216 214.383 151.909 215.349 151.797 216.47ZM192.95 229.215L187.322 229.218L187.314 216.87C187.313 215.106 187.004 213.818 186.388 213.006C185.771 212.195 184.917 211.789 183.825 211.79C183.069 211.79 182.299 211.987 181.515 212.379C180.76 212.771 180.074 213.318 179.458 214.018C178.843 214.69 178.395 215.475 178.116 216.371L178.124 229.223L172.496 229.226L172.482 207.218L177.564 207.215L177.567 211.289C178.126 210.337 178.84 209.538 179.707 208.894C180.575 208.222 181.569 207.717 182.688 207.38C183.836 207.016 185.04 206.833 186.3 206.832C187.672 206.832 188.792 207.083 189.661 207.586C190.557 208.062 191.229 208.72 191.678 209.559C192.154 210.371 192.477 211.295 192.645 212.331C192.842 213.367 192.941 214.417 192.941 215.481L192.95 229.215ZM197.843 229.212L197.83 207.204L203.458 207.201L203.471 229.209L197.843 229.212ZM197.828 204.138L197.825 198.552L203.453 198.549L203.456 204.135L197.828 204.138ZM218.755 229.62C216.991 229.621 215.394 229.328 213.966 228.741C212.538 228.126 211.319 227.3 210.311 226.265C209.302 225.202 208.517 223.998 207.956 222.654C207.424 221.283 207.157 219.841 207.156 218.329C207.154 216.229 207.615 214.31 208.538 212.574C209.489 210.837 210.832 209.451 212.568 208.414C214.331 207.349 216.403 206.816 218.783 206.814C221.191 206.813 223.249 207.344 224.958 208.407C226.666 209.442 227.969 210.827 228.866 212.563C229.791 214.27 230.254 216.118 230.256 218.106C230.256 218.442 230.242 218.792 230.214 219.156C230.186 219.492 230.159 219.772 230.131 219.996L213.121 220.005C213.233 221.125 213.556 222.105 214.089 222.945C214.649 223.785 215.349 224.428 216.19 224.876C217.058 225.295 217.982 225.505 218.962 225.504C220.082 225.503 221.132 225.237 222.112 224.704C223.119 224.144 223.805 223.415 224.168 222.519L228.999 223.861C228.468 224.981 227.698 225.975 226.691 226.844C225.711 227.712 224.55 228.399 223.206 228.904C221.862 229.381 220.379 229.619 218.755 229.62ZM212.993 216.435L224.501 216.429C224.388 215.309 224.065 214.343 223.533 213.532C223.028 212.692 222.356 212.048 221.516 211.601C220.675 211.125 219.737 210.888 218.701 210.888C217.693 210.889 216.769 211.127 215.93 211.604C215.118 212.052 214.446 212.697 213.915 213.537C213.411 214.349 213.104 215.315 212.993 216.435ZM246.785 212.049C245.077 212.05 243.551 212.386 242.207 213.059C240.864 213.704 239.898 214.642 239.311 215.875L239.319 229.189L233.691 229.192L233.678 207.184L238.844 207.181L238.846 211.885C239.63 210.373 240.623 209.182 241.826 208.313C243.03 207.445 244.303 206.968 245.647 206.883C245.955 206.883 246.193 206.883 246.361 206.883C246.529 206.883 246.669 206.897 246.781 206.925L246.785 212.049ZM259.81 229.597C258.018 229.598 256.408 229.305 254.98 228.718C253.551 228.103 252.333 227.264 251.324 226.2C250.344 225.137 249.587 223.919 249.054 222.547C248.521 221.176 248.254 219.734 248.253 218.222C248.252 216.682 248.518 215.226 249.049 213.853C249.58 212.481 250.335 211.263 251.315 210.198C252.322 209.134 253.539 208.307 254.967 207.718C256.395 207.101 258.004 206.792 259.796 206.791C261.588 206.79 263.185 207.097 264.585 207.713C266.013 208.3 267.232 209.125 268.241 210.189C269.249 211.252 270.006 212.47 270.511 213.841C271.044 215.213 271.31 216.669 271.311 218.209C271.312 219.721 271.047 221.163 270.516 222.535C270.013 223.908 269.258 225.126 268.25 226.191C267.271 227.255 266.067 228.096 264.64 228.713C263.212 229.301 261.602 229.596 259.81 229.597ZM254.049 218.219C254.05 219.507 254.303 220.654 254.807 221.662C255.312 222.642 255.998 223.411 256.867 223.971C257.735 224.531 258.715 224.81 259.807 224.809C260.871 224.809 261.837 224.528 262.705 223.968C263.572 223.379 264.258 222.595 264.761 221.615C265.293 220.606 265.558 219.458 265.557 218.17C265.557 216.91 265.29 215.776 264.757 214.769C264.253 213.761 263.566 212.977 262.698 212.418C261.83 211.858 260.863 211.579 259.799 211.579C258.707 211.58 257.728 211.875 256.86 212.463C255.992 213.023 255.307 213.808 254.803 214.816C254.3 215.796 254.049 216.931 254.049 218.219ZM283.856 218.16C283.855 216.032 284.273 214.114 285.112 212.405C285.951 210.669 287.113 209.296 288.596 208.287C290.079 207.278 291.773 206.774 293.677 206.772C295.301 206.772 296.757 207.177 298.046 207.988C299.362 208.771 300.385 209.779 301.114 211.01L301.106 198.494L306.734 198.491L306.749 222.851C306.749 223.439 306.847 223.859 307.043 224.111C307.24 224.363 307.576 224.517 308.052 224.572L308.054 229.15C307.075 229.347 306.277 229.445 305.661 229.446C304.653 229.446 303.813 229.195 303.14 228.691C302.496 228.188 302.132 227.53 302.047 226.718L301.962 225.332C301.151 226.704 300.046 227.755 298.646 228.484C297.275 229.212 295.833 229.577 294.321 229.578C292.809 229.579 291.409 229.286 290.12 228.698C288.86 228.111 287.753 227.3 286.801 226.264C285.876 225.229 285.147 224.025 284.615 222.654C284.11 221.254 283.857 219.756 283.856 218.16ZM301.12 221.09L301.116 215.84C300.836 215.028 300.388 214.301 299.771 213.657C299.155 213.013 298.468 212.51 297.712 212.146C296.956 211.755 296.2 211.559 295.444 211.559C294.576 211.56 293.792 211.742 293.092 212.107C292.392 212.471 291.777 212.962 291.245 213.578C290.741 214.194 290.35 214.908 290.07 215.72C289.819 216.533 289.693 217.387 289.694 218.283C289.694 219.179 289.835 220.033 290.115 220.844C290.424 221.628 290.858 222.314 291.419 222.902C291.979 223.489 292.623 223.951 293.352 224.287C294.108 224.622 294.92 224.79 295.788 224.789C296.32 224.789 296.852 224.705 297.384 224.536C297.944 224.34 298.461 224.088 298.937 223.78C299.441 223.443 299.875 223.051 300.239 222.603C300.63 222.127 300.924 221.622 301.12 221.09ZM322.483 229.562C320.719 229.563 319.123 229.27 317.695 228.683C316.266 228.068 315.048 227.243 314.039 226.207C313.03 225.144 312.246 223.94 311.685 222.596C311.152 221.225 310.885 219.783 310.884 218.271C310.883 216.171 311.344 214.253 312.267 212.516C313.218 210.78 314.561 209.393 316.296 208.356C318.06 207.291 320.131 206.758 322.511 206.756C324.919 206.755 326.978 207.286 328.686 208.349C330.395 209.384 331.698 210.769 332.595 212.505C333.52 214.212 333.983 216.06 333.984 218.048C333.984 218.384 333.971 218.734 333.943 219.098C333.915 219.434 333.887 219.714 333.859 219.938L316.849 219.948C316.962 221.068 317.285 222.047 317.817 222.887C318.378 223.727 319.078 224.37 319.918 224.818C320.786 225.237 321.711 225.447 322.691 225.446C323.811 225.446 324.86 225.179 325.84 224.647C326.848 224.086 327.533 223.358 327.897 222.461L332.728 223.803C332.196 224.923 331.427 225.917 330.419 226.786C329.44 227.655 328.278 228.341 326.935 228.846C325.591 229.323 324.107 229.562 322.483 229.562ZM316.721 216.378L328.229 216.371C328.116 215.251 327.794 214.285 327.261 213.474C326.757 212.634 326.084 211.99 325.244 211.543C324.404 211.067 323.466 210.83 322.43 210.83C321.422 210.831 320.498 211.07 319.658 211.546C318.846 211.994 318.175 212.639 317.643 213.479C317.14 214.291 316.832 215.258 316.721 216.378ZM129.998 278.67C128.122 278.671 126.329 278.364 124.621 277.749C122.913 277.134 121.442 276.224 120.209 275.021L122.223 271.366C123.54 272.429 124.828 273.213 126.089 273.716C127.377 274.219 128.609 274.47 129.785 274.47C130.877 274.469 131.745 274.273 132.389 273.88C133.06 273.488 133.396 272.9 133.396 272.116C133.395 271.584 133.213 271.178 132.849 270.898C132.485 270.59 131.953 270.325 131.252 270.101C130.58 269.877 129.754 269.626 128.774 269.346C127.15 268.815 125.791 268.298 124.699 267.795C123.607 267.291 122.78 266.662 122.22 265.906C121.687 265.122 121.421 264.128 121.42 262.924C121.419 261.468 121.782 260.222 122.51 259.186C123.265 258.121 124.301 257.295 125.616 256.706C126.96 256.117 128.528 255.823 130.32 255.822C131.888 255.821 133.372 256.072 134.772 256.575C136.173 257.05 137.447 257.834 138.596 258.925L136.33 262.496C135.209 261.629 134.145 260.999 133.137 260.608C132.128 260.189 131.106 259.979 130.07 259.98C129.482 259.98 128.922 260.05 128.39 260.191C127.887 260.331 127.467 260.569 127.131 260.905C126.823 261.213 126.669 261.662 126.67 262.25C126.67 262.782 126.81 263.201 127.09 263.509C127.399 263.789 127.847 264.041 128.435 264.265C129.051 264.488 129.793 264.74 130.661 265.019C132.426 265.522 133.91 266.04 135.114 266.571C136.347 267.102 137.271 267.76 137.887 268.543C138.504 269.299 138.813 270.349 138.813 271.693C138.815 273.877 138.018 275.585 136.422 276.818C134.827 278.051 132.686 278.668 129.998 278.67ZM142.645 278.243L142.632 256.235L148.26 256.232L148.273 278.24L142.645 278.243ZM142.63 253.169L142.627 247.583L148.255 247.58L148.258 253.166L142.63 253.169ZM161.457 278.652C159.581 278.653 157.788 278.346 156.08 277.731C154.372 277.116 152.901 276.207 151.668 275.004L153.682 271.349C154.999 272.412 156.287 273.195 157.548 273.698C158.836 274.202 160.068 274.453 161.244 274.452C162.336 274.452 163.204 274.255 163.848 273.863C164.519 273.47 164.855 272.882 164.855 272.098C164.854 271.566 164.672 271.16 164.308 270.881C163.944 270.573 163.412 270.307 162.711 270.083C162.039 269.86 161.213 269.608 160.233 269.329C158.609 268.798 157.25 268.281 156.158 267.777C155.066 267.274 154.239 266.644 153.679 265.889C153.146 265.105 152.88 264.111 152.879 262.907C152.878 261.451 153.241 260.205 153.969 259.168C154.724 258.104 155.76 257.277 157.075 256.689C158.419 256.1 159.987 255.805 161.779 255.804C163.347 255.803 164.831 256.054 166.231 256.558C167.632 257.033 168.906 257.816 170.055 258.907L167.789 262.479C166.668 261.611 165.604 260.982 164.596 260.59C163.587 260.171 162.565 259.962 161.529 259.962C160.941 259.962 160.381 260.033 159.849 260.173C159.345 260.313 158.926 260.552 158.59 260.888C158.282 261.196 158.128 261.644 158.129 262.232C158.129 262.764 158.269 263.184 158.549 263.492C158.858 263.772 159.306 264.023 159.894 264.247C160.51 264.471 161.252 264.722 162.12 265.002C163.885 265.505 165.369 266.022 166.573 266.553C167.806 267.085 168.73 267.742 169.346 268.526C169.963 269.281 170.272 270.331 170.272 271.675C170.274 273.859 169.477 275.568 167.881 276.801C166.286 278.033 164.145 278.651 161.457 278.652ZM187.168 277.084C186.693 277.28 186.119 277.504 185.447 277.757C184.775 278.009 184.047 278.206 183.263 278.346C182.507 278.514 181.737 278.599 180.953 278.599C179.917 278.6 178.965 278.418 178.097 278.055C177.229 277.691 176.528 277.118 175.996 276.334C175.492 275.522 175.239 274.472 175.238 273.184L175.23 260.542L172.332 260.544L172.33 256.218L175.228 256.216L175.224 249.076L180.852 249.073L180.856 256.213L185.476 256.211L185.478 260.537L180.858 260.539L180.865 271.291C180.893 272.047 181.104 272.593 181.496 272.929C181.888 273.265 182.378 273.433 182.966 273.432C183.554 273.432 184.128 273.334 184.688 273.137C185.248 272.941 185.696 272.773 186.032 272.632L187.168 277.084ZM200.06 278.631C198.296 278.632 196.7 278.339 195.272 277.751C193.844 277.136 192.625 276.311 191.616 275.275C190.608 274.212 189.823 273.008 189.262 271.665C188.729 270.293 188.463 268.851 188.462 267.339C188.46 265.239 188.921 263.321 189.844 261.584C190.795 259.848 192.138 258.461 193.874 257.424C195.637 256.359 197.709 255.826 200.089 255.825C202.497 255.823 204.555 256.354 206.264 257.417C207.972 258.452 209.275 259.838 210.172 261.573C211.097 263.281 211.56 265.128 211.561 267.116C211.562 267.452 211.548 267.802 211.52 268.166C211.492 268.502 211.465 268.782 211.437 269.006L194.427 269.016C194.539 270.136 194.862 271.116 195.394 271.955C195.955 272.795 196.655 273.439 197.496 273.886C198.364 274.306 199.288 274.515 200.268 274.515C201.388 274.514 202.438 274.247 203.417 273.715C204.425 273.154 205.111 272.426 205.474 271.53L210.305 272.871C209.774 273.991 209.004 274.986 207.997 275.854C207.017 276.723 205.856 277.409 204.512 277.914C203.168 278.391 201.684 278.63 200.06 278.631ZM194.298 265.446L205.806 265.439C205.694 264.32 205.371 263.354 204.839 262.542C204.334 261.702 203.662 261.059 202.822 260.611C201.981 260.136 201.043 259.898 200.007 259.899C198.999 259.899 198.075 260.138 197.236 260.614C196.424 261.063 195.752 261.707 195.221 262.547C194.717 263.36 194.41 264.326 194.298 265.446ZM249.185 278.183L243.557 278.186L243.549 265.838C243.548 264.102 243.239 262.829 242.623 262.017C242.035 261.177 241.208 260.758 240.144 260.758C239.052 260.759 238.003 261.194 236.995 262.062C236.016 262.903 235.316 264.009 234.897 265.381L234.905 278.191L229.277 278.194L229.269 265.846C229.268 264.082 228.959 262.795 228.343 261.983C227.754 261.171 226.928 260.766 225.864 260.766C224.772 260.767 223.723 261.187 222.715 262.028C221.736 262.869 221.036 263.975 220.617 265.347L220.625 278.199L214.997 278.202L214.983 256.194L220.065 256.192L220.068 260.266C220.907 258.837 222.026 257.744 223.426 256.988C224.826 256.203 226.435 255.81 228.255 255.809C230.075 255.808 231.49 256.255 232.498 257.151C233.535 258.046 234.193 259.152 234.474 260.467C235.369 258.955 236.502 257.806 237.874 257.022C239.274 256.209 240.841 255.802 242.577 255.801C243.949 255.8 245.055 256.052 245.896 256.555C246.764 257.031 247.436 257.688 247.913 258.528C248.389 259.34 248.712 260.264 248.881 261.299C249.077 262.335 249.176 263.385 249.176 264.449L249.185 278.183ZM252.569 271.671C252.568 270.243 252.959 268.997 253.742 267.933C254.554 266.84 255.673 266 257.101 265.411C258.529 264.822 260.166 264.527 262.014 264.526C262.938 264.526 263.876 264.595 264.829 264.735C265.781 264.874 266.607 265.098 267.307 265.405L267.306 264.229C267.305 262.829 266.885 261.751 266.044 260.996C265.232 260.24 264.014 259.863 262.39 259.864C261.186 259.865 260.038 260.075 258.946 260.496C257.854 260.916 256.707 261.533 255.503 262.346L253.695 258.651C255.15 257.698 256.634 256.983 258.146 256.506C259.685 256.029 261.295 255.791 262.975 255.79C266.111 255.788 268.548 256.57 270.285 258.138C272.05 259.705 272.933 261.944 272.935 264.856L272.939 271.87C272.939 272.458 273.037 272.878 273.234 273.13C273.458 273.382 273.808 273.536 274.284 273.591L274.287 278.169C273.783 278.254 273.321 278.324 272.901 278.38C272.509 278.436 272.173 278.464 271.893 278.465C270.773 278.465 269.919 278.214 269.33 277.71C268.77 277.206 268.42 276.591 268.279 275.863L268.153 274.729C267.201 275.961 266.012 276.914 264.584 277.587C263.157 278.26 261.701 278.596 260.217 278.597C258.761 278.598 257.445 278.305 256.268 277.717C255.12 277.102 254.209 276.276 253.537 275.241C252.892 274.177 252.57 272.987 252.569 271.671ZM266.261 272.798C266.569 272.462 266.821 272.125 267.017 271.789C267.213 271.453 267.31 271.145 267.31 270.865L267.309 268.639C266.637 268.36 265.909 268.15 265.125 268.01C264.34 267.843 263.598 267.759 262.898 267.76C261.442 267.76 260.239 268.083 259.287 268.728C258.363 269.344 257.902 270.17 257.902 271.206C257.903 271.766 258.057 272.298 258.365 272.802C258.674 273.306 259.122 273.712 259.71 274.019C260.298 274.327 260.998 274.481 261.81 274.48C262.65 274.48 263.476 274.325 264.288 274.017C265.1 273.68 265.758 273.274 266.261 272.798ZM286.308 278.583C284.432 278.584 282.64 278.277 280.932 277.662C279.223 277.047 277.753 276.137 276.52 274.934L278.534 271.279C279.85 272.342 281.139 273.125 282.399 273.629C283.687 274.132 284.92 274.383 286.096 274.383C287.188 274.382 288.055 274.186 288.699 273.793C289.371 273.401 289.707 272.813 289.706 272.029C289.706 271.497 289.524 271.091 289.159 270.811C288.795 270.503 288.263 270.238 287.563 270.014C286.891 269.79 286.065 269.539 285.084 269.259C283.46 268.728 282.102 268.211 281.01 267.708C279.917 267.204 279.091 266.575 278.53 265.819C277.998 265.035 277.731 264.041 277.731 262.837C277.73 261.381 278.093 260.135 278.82 259.099C279.576 258.034 280.611 257.208 281.927 256.619C283.27 256.03 284.838 255.735 286.63 255.734C288.198 255.734 289.682 255.985 291.083 256.488C292.483 256.963 293.758 257.746 294.906 258.838L292.64 262.409C291.52 261.542 290.455 260.912 289.447 260.521C288.439 260.101 287.417 259.892 286.381 259.893C285.793 259.893 285.233 259.963 284.701 260.103C284.197 260.244 283.777 260.482 283.441 260.818C283.134 261.126 282.98 261.574 282.98 262.162C282.981 262.694 283.121 263.114 283.401 263.422C283.709 263.702 284.157 263.954 284.745 264.177C285.362 264.401 286.104 264.653 286.972 264.932C288.736 265.435 290.22 265.952 291.425 266.484C292.657 267.015 293.582 267.673 294.198 268.456C294.814 269.212 295.123 270.262 295.124 271.606C295.125 273.79 294.328 275.498 292.733 276.731C291.138 277.964 288.996 278.581 286.308 278.583Z" fill="white"/>
<path d="M164.923 74.29L144.776 90.44L164.923 106.59" stroke="#7B4AE2" stroke-linecap="round" stroke-linejoin="round"/>
<path d="M218.646 74.29L238.793 90.44L218.646 106.59" stroke="#7B4AE2" stroke-linecap="round" stroke-linejoin="round"/>
<path d="M205.215 54.9102L178.354 125.97" stroke="#7B4AE2" stroke-linecap="round" stroke-linejoin="round"/>
<g filter="url(#filter0_d_21_59)">
<ellipse cx="225.362" cy="93.6701" rx="33.5772" ry="32.3" fill="#7B4AE2" fill-opacity="0.2" shape-rendering="crispEdges"/>
</g>
<defs>
<filter id="filter0_d_21_59" x="187.785" y="61.3701" width="75.1545" height="72.6001" filterUnits="userSpaceOnUse" color-interpolation-filters="sRGB">
<feFlood flood-opacity="0" result="BackgroundImageFix"/>
<feColorMatrix in="SourceAlpha" type="matrix" values="0 0 0 0 0 0 0 0 0 0 0 0 0 0 0 0 0 0 127 0" result="hardAlpha"/>
<feOffset dy="4"/>
<feGaussianBlur stdDeviation="2"/>
<feComposite in2="hardAlpha" operator="out"/>
<feColorMatrix type="matrix" values="0 0 0 0 0 0 0 0 0 0 0 0 0 0 0 0 0 0 0.25 0"/>
<feBlend mode="normal" in2="BackgroundImageFix" result="effect1_dropShadow_21_59"/>
<feBlend mode="normal" in="SourceGraphic" in2="effect1_dropShadow_21_59" result="shape"/>
</filter>
</defs>
</svg>
