<svg width="72" height="67" viewBox="0 0 72 67" fill="none" xmlns="http://www.w3.org/2000/svg">
<path id="Shape" fill-rule="evenodd" clip-rule="evenodd" d="M69.75 30.1697L38.7107 1.24941C36.9244 -0.41647 34.0251 -0.41647 32.2365 1.24941L25.7912 7.25515L33.9674 14.8737C35.8675 14.2755 38.0461 14.6767 39.5609 16.0882C41.0827 17.5085 41.5102 19.5559 40.8526 21.3323L48.7324 28.6746C50.6388 28.0627 52.8384 28.4588 54.361 29.8797C56.4889 31.8618 56.4889 35.0743 54.361 37.0578C52.2323 39.0413 48.7846 39.0413 46.6552 37.0578C45.0546 35.5649 44.6591 33.3743 45.4696 31.5369L38.121 24.6895L38.1202 42.7089C38.6389 42.9487 39.1288 43.2678 39.5609 43.669C41.6888 45.6511 41.6888 48.8636 39.5609 50.8486C37.4322 52.8313 33.983 52.8313 31.8574 50.8486C29.7295 48.8636 29.7295 45.6511 31.8574 43.669C32.3831 43.1799 32.9916 42.8099 33.6405 42.5613V24.374C32.9916 24.1269 32.3839 23.7591 31.8574 23.2663C30.2451 21.7662 29.8574 19.5617 30.6835 17.7171L22.6243 10.2061L1.34144 30.036C-0.447147 31.7033 -0.447147 34.4049 1.34144 36.0708L32.3808 64.9918C34.1678 66.6577 37.0664 66.6577 38.8558 64.9918L69.75 36.2053C71.5378 34.5387 71.5378 31.8356 69.75 30.1697Z" fill="#34D2DD"/>
</svg>
