<svg width="72" height="67" viewBox="0 0 72 67" fill="none" xmlns="http://www.w3.org/2000/svg">
<g id="Github">
<path id="Shape" fill-rule="evenodd" clip-rule="evenodd" d="M36.4555 1.55255C17.2871 1.55255 1.74353 16.0334 1.74353 33.8972C1.74353 48.1879 11.6896 60.312 25.4817 64.5889C27.2165 64.8883 27.8534 63.8872 27.8534 63.0329C27.8534 62.2617 27.8212 59.7137 27.8062 57.011C18.1493 58.9676 16.1116 53.1948 16.1116 53.1948C14.5326 49.4562 12.2575 48.4621 12.2575 48.4621C9.10807 46.4546 12.4949 46.4959 12.4949 46.4959C15.9806 46.724 17.816 49.829 17.816 49.829C20.9119 54.7738 25.9364 53.3442 27.9172 52.5178C28.2287 50.4273 29.1283 49.0004 30.121 48.1927C22.411 47.3748 14.3061 44.6014 14.3061 32.2079C14.3061 28.6766 15.6621 25.7912 17.8826 23.5261C17.5222 22.7114 16.3341 19.4217 18.2189 14.9665C18.2189 14.9665 21.1338 14.0972 27.7672 18.2819C30.536 17.5653 33.5055 17.2059 36.4555 17.1935C39.4055 17.2059 42.3772 17.5653 45.1513 18.2819C51.7766 14.0972 54.6875 14.9665 54.6875 14.9665C56.5769 19.4217 55.3882 22.7114 55.0278 23.5261C57.2535 25.7912 58.6003 28.6766 58.6003 32.2079C58.6003 44.6309 50.4799 47.3662 42.7503 48.167C43.9954 49.1707 45.1048 51.1391 45.1048 54.1568C45.1048 58.4845 45.0645 61.9676 45.0645 63.0329C45.0645 63.8937 45.6893 64.9022 47.4488 64.5846C61.2335 60.3029 71.1669 48.1831 71.1669 33.8972C71.1669 16.0334 55.6256 1.55255 36.4555 1.55255ZM14.7443 47.6281C14.6678 47.7888 14.3965 47.837 14.1494 47.7267C13.8976 47.6212 13.7562 47.4021 13.8378 47.2409C13.9125 47.0754 14.1844 47.0293 14.4356 47.1402C14.688 47.2457 14.8317 47.4669 14.7443 47.6281ZM16.4517 49.0478C16.2862 49.1908 15.9626 49.1244 15.743 48.8983C15.5159 48.6728 15.4734 48.3713 15.6412 48.2261C15.812 48.0831 16.1258 48.1501 16.3534 48.3756C16.5805 48.6038 16.6248 48.9032 16.4517 49.0478ZM17.6231 50.8641C17.4104 51.0018 17.0627 50.8727 16.8477 50.5851C16.635 50.2975 16.635 49.9525 16.8523 49.8143C17.0678 49.6761 17.4104 49.8004 17.6283 50.0859C17.8404 50.3783 17.8404 50.7233 17.6231 50.8641ZM19.6041 52.9677C19.4139 53.1632 19.0086 53.1107 18.712 52.844C18.4085 52.5832 18.324 52.2131 18.5149 52.0176C18.7074 51.8215 19.115 51.8767 19.4139 52.1413C19.7151 52.4016 19.8071 52.7744 19.6041 52.9677ZM22.1644 53.6779C22.0805 53.9312 21.6902 54.0464 21.297 53.9387C20.9044 53.8279 20.6475 53.5311 20.7268 53.2751C20.8085 53.0202 21.2005 52.9002 21.5965 53.0153C21.9886 53.1257 22.2461 53.4203 22.1644 53.6779ZM25.0782 53.9791C25.0879 54.2459 24.7546 54.4671 24.3418 54.4719C23.9268 54.4805 23.5911 54.2646 23.5865 54.0022C23.5865 53.7327 23.9124 53.5137 24.3275 53.5072C24.7402 53.4997 25.0782 53.714 25.0782 53.9791ZM27.9406 53.8769C27.99 54.1372 27.7032 54.4045 27.2933 54.4757C26.8904 54.5443 26.5173 54.3836 26.4662 54.1254C26.4162 53.8587 26.7082 53.5914 27.1105 53.5223C27.521 53.4559 27.8883 53.6123 27.9406 53.8769Z" fill="white" fill-opacity="0.67"/>
</g>
</svg>
