<svg width="64" height="67" viewBox="0 0 64 67" fill="none" xmlns="http://www.w3.org/2000/svg">
<g id="Group 1">
<path id="Shape" fill-rule="evenodd" clip-rule="evenodd" d="M0.333862 0L6.03858 59.6192L31.6388 66.2412L57.3088 59.6095L63.0196 0H0.333862ZM52.4462 55.8585L31.7293 61.169L31.7293 53.5807L31.667 53.5944L15.565 49.4401L14.4657 37.9668H22.3436L22.9154 43.7907L31.6687 45.9811L31.7293 45.9726L31.7293 34.1702L14.0791 34.1702L13.3919 26.8689V26.8689L31.7293 19.5557V19.0506H12.6941L11.9987 11.7493H31.6498H31.7293V4.96505H57.3001L52.4462 55.8585Z" fill="#D93A00"/>
<path id="Shape_2" fill-rule="evenodd" clip-rule="evenodd" d="M32.9942 19.0506L31.7294 19.5557V26.8688H31.7294V34.1701H41.3128L40.4417 43.716L31.7294 45.9789V53.5864L47.7779 49.4321L49.8911 26.8688H31.7295L50.6036 19.0506L51.2776 11.7493H31.7294V18.959V19.0506H32.9942Z" fill="#D93A00"/>
</g>
</svg>
