<svg width="72" height="67" viewBox="0 0 72 67" fill="none" xmlns="http://www.w3.org/2000/svg">
<g id="Javascript">
<path id="Shape" fill-rule="evenodd" clip-rule="evenodd" d="M0.83313 8.77625C0.83313 4.35797 4.41486 0.776245 8.83313 0.776245H62.2565C66.6748 0.776245 70.2565 4.35796 70.2565 8.77624V57.465C70.2565 61.8832 66.6748 65.465 62.2565 65.465H8.83313C4.41485 65.465 0.83313 61.8832 0.83313 57.465V8.77625ZM19.0871 54.8348C19.0871 54.8348 19.0871 54.8348 19.0871 54.8348L19.0872 54.8348C20.625 57.874 23.6545 60.3924 28.8732 60.3924C34.652 60.3924 38.6129 57.5265 38.6129 51.2302V33.7366C38.6129 31.9351 37.1524 30.4746 35.3509 30.4746C33.5493 30.4746 32.0889 31.9351 32.0889 33.7366V51.1442C32.0889 54.1836 30.7373 54.965 28.5936 54.965C25.5096 54.965 22.2651 53.0428 19.5788 54.5576L19.0872 54.8348L19.0872 54.8347C19.0871 54.8347 19.087 54.8347 19.0871 54.8348ZM49.3503 53.4872C48.0894 52.4526 46.3669 51.912 44.9315 52.6864C43.4002 53.5125 42.8061 55.4701 44.0328 56.7039C46.2245 58.9085 49.5411 60.393 54.0398 60.393C60.2376 60.393 64.8511 57.397 64.8511 51.9254C64.8511 46.8451 61.7287 44.5873 56.1831 42.3726L54.5522 41.7213C51.7564 40.5923 50.5447 39.8539 50.5447 38.0301C50.5447 36.5539 51.7564 35.425 53.6671 35.425C54.5139 35.425 55.226 35.5773 55.8559 35.9186C57.2871 36.6942 58.9928 37.3527 60.3897 36.5169C61.795 35.6759 62.2864 33.7943 61.0927 32.673C59.1674 30.8643 56.7362 30.1271 53.667 30.1271C47.8416 30.1271 44.1135 33.601 44.1135 38.1605C44.1135 43.1108 47.2359 45.4556 51.9429 47.3224L53.5735 47.9743C56.5561 49.1897 58.3268 49.928 58.3268 52.0123C58.3268 53.7492 56.603 55.0086 53.8998 55.0086C51.9363 55.0086 50.4941 54.4257 49.3503 53.4872Z" fill="#EEFF00"/>
</g>
</svg>
