<svg width="60" height="56" viewBox="0 0 60 56" fill="none" xmlns="http://www.w3.org/2000/svg">
<g id="Python" clip-path="url(#clip0_23_245)">
<g id="Union">
<path fill-rule="evenodd" clip-rule="evenodd" d="M15.8347 6.77391C15.8347 6.77391 14.9084 0.779542 29.7428 0.779541C45.2455 0.779541 44.0478 8.00668 44.0478 8.00668V19.9492C44.0478 27.1719 36.1594 27.0531 36.1594 27.0531H22.119C13.6995 27.0531 13.966 34.7733 13.966 34.7733V41.2454H9.02127C9.02127 41.2454 0.735961 41.74 0.735962 27.7927C0.735962 13.8455 10.2285 14.8486 10.2285 14.8486H30.0074V12.984H15.8513L15.8347 6.77391ZM24.4839 7.32866C24.4839 6.01628 23.3455 4.95556 21.9371 4.95557C20.5287 4.95557 19.3903 6.01628 19.3903 7.32866C19.3903 8.64103 20.5287 9.70175 21.9371 9.70175C23.3455 9.70175 24.4839 8.64103 24.4839 7.32866Z" fill="#0059FF" fill-opacity="0.94"/>
<path fill-rule="evenodd" clip-rule="evenodd" d="M44.0722 48.9514C44.0722 48.9514 44.9986 54.9457 30.1641 54.9457C14.6615 54.9457 15.8591 47.7186 15.8591 47.7186V35.7761C15.8591 28.5534 23.7476 28.6722 23.7476 28.6722H37.7879C46.2075 28.6722 45.9409 20.952 45.9409 20.952V14.4799H50.8857C50.8857 14.4799 59.171 13.9853 59.171 27.9326C59.171 41.8798 49.6784 40.8767 49.6784 40.8767H29.8995V42.7413H44.0557L44.0722 48.9514ZM35.4231 48.3966C35.4231 49.709 36.5614 50.7697 37.9698 50.7697C39.3783 50.7697 40.5166 49.709 40.5166 48.3966C40.5166 47.0842 39.3783 46.0235 37.9698 46.0235C36.5614 46.0235 35.4231 47.0842 35.4231 48.3966Z" fill="#0059FF" fill-opacity="0.94"/>
</g>
</g>
<defs>
<clipPath id="clip0_23_245">
<rect width="59.9818" height="55.8911" fill="white"/>
</clipPath>
</defs>
</svg>
